<svg xmlns="http://www.w3.org/2000/svg" viewBox="0 0 64 64" width="64" height="64">
  <defs>
    <linearGradient id="bg" x1="0%" y1="0%" x2="100%" y2="100%">
      <stop offset="0%" stop-color="#2563EB"/>
      <stop offset="100%" stop-color="#1D4ED8"/>
    </linearGradient>
  </defs>
  <rect width="64" height="64" rx="14" fill="url(#bg)"/>
  <g transform="translate(12, 12)" fill="none" stroke="white" stroke-width="2.2" stroke-linecap="round" stroke-linejoin="round">
    <path d="M6 28a4 4 0 1 1-8 0 4 4 0 0 1 8 0z" fill="white"/>
    <path d="M26 28a4 4 0 1 1-8 0 4 4 0 0 1 8 0z" fill="white"/>
    <path d="M18 24V10a2 2 0 0 0-2-2H4a2 2 0 0 0-2 2v14l4-2h4"/>
    <path d="M30 22l4-2V12a2 2 0 0 0-2-2h-8"/>
    <path d="M14 24h-4"/>
    <path d="M18 24a4 4 0 0 0 4-6v-6a4 4 0 0 0-4-4h-8a4 4 0 0 0-4 4v6a4 4 0 0 0 4 6"/>
  </g>
  <circle cx="50" cy="14" r="5" fill="#F97316"/>
</svg>
